<svg xmlns="http://www.w3.org/2000/svg" viewBox="0 0 1280 720" role="img" aria-label="GIS road network map preview">
  <rect width="1280" height="720" fill="#e6eee9"/>
  <path d="M0 130 180 70l155 65 140-92 188 61 172-52 172 86 273-70v652H0z" fill="#d0e0d2"/>
  <path d="m95 650 135-160 110 24 74-126 150 14 94-157 142 34 117-133 176 16 110-97M100 170l153 89 76 112 182-14 80 112 144-19 106 112 174-9 108 84M270 0l45 135-62 124 93 112-62 143 56 206M740 0l-28 161 93 139-50 161 92 137-22 122" fill="none" stroke="#f9fbf8" stroke-width="22" stroke-linecap="round" stroke-linejoin="round"/>
  <path d="m95 650 135-160 110 24 74-126 150 14 94-157 142 34 117-133 176 16 110-97M100 170l153 89 76 112 182-14 80 112 144-19 106 112 174-9 108 84" fill="none" stroke="#dd8c4d" stroke-width="7" stroke-linecap="round" stroke-linejoin="round"/>
  <g fill="#287d79" stroke="#fff" stroke-width="5"><circle cx="230" cy="490" r="13"/><circle cx="564" cy="403" r="13"/><circle cx="790" cy="340" r="13"/><circle cx="1042" cy="250" r="13"/><circle cx="875" cy="554" r="13"/></g>
  <rect x="55" y="45" width="410" height="78" rx="12" fill="#f8faf8" opacity=".94"/><text x="82" y="94" fill="#244350" font-family="Arial,sans-serif" font-size="24" letter-spacing="3">SKARDU · ROAD NETWORK</text>
  <text x="70" y="675" fill="#355963" font-family="Arial,sans-serif" font-size="17" letter-spacing="4">GIS SPATIAL ANALYSIS · ROUTE SEGMENTS</text>
</svg>
